<?xml version="1.0" encoding="UTF-8"?>
<svg width="492px" height="106px" viewBox="0 0 492 106" version="1.1" 
    xmlns="http://www.w3.org/2000/svg" 
    xmlns:xlink="http://www.w3.org/1999/xlink">
    <!-- Generator: Sketch 52.2 (67145) - http://www.bohemiancoding.com/sketch -->
    <title>Group 3</title>
    <desc>Created with Sketch.</desc>
    <defs>
        <polygon id="path-1" points="0.699 0.332 172.789 0.332 172.789 47.911 0.699 47.911"></polygon>
    </defs>
    <g id="[Lab]-Service-Areas-2" stroke="none" stroke-width="1" fill="none" fill-rule="evenodd">
        <g id="Group-3">
            <path d="M137.46,76.833 C130.256,76.833 123.686,74.136 117.933,68.815 L117.502,68.415 C117.352,68.276 117.335,68.044 117.465,67.886 L124.105,59.746 C124.244,59.576 124.496,59.555 124.661,59.699 L125.148,60.126 C129.682,64.099 133.888,66.112 137.649,66.112 C139.221,66.112 140.447,65.789 141.291,65.151 C142.08,64.556 142.432,63.834 142.432,62.81 C142.432,61.8 142.172,61.181 141.333,60.583 C140.35,59.885 138.271,59.192 135.189,58.379 C128.805,56.695 121.54,54.274 119.83,46.541 C119.629,45.63 118.303,37.817 124.405,32.862 C127.488,30.358 131.564,29.255 136.262,29.255 C139.3,29.255 142.379,29.782 145.412,30.822 C148.457,31.866 151.153,33.37 153.424,35.291 L153.858,35.657 C154.01,35.787 154.04,36.01 153.926,36.175 L148.254,44.36 C148.128,44.542 147.876,44.582 147.7,44.448 L147.18,44.054 C143.556,41.306 139.777,39.913 135.947,39.913 C134.558,39.913 133.336,40.363 132.581,40.983 C131.876,41.563 131.533,42.317 131.533,43.288 C131.533,44.238 132.2,45.239 133.963,46.039 C135.219,46.609 137.387,47.225 140.632,48.038 C145.15,49.169 149.319,50.911 151.788,53.831 C154.196,56.678 154.602,59.86 154.602,62.526 C154.602,66.771 152.985,70.267 149.794,72.914 C146.66,75.515 142.51,76.833 137.46,76.833" id="Fill-1" fill="#1F2C30"></path>
            <path d="M158.439,75.785 L158.439,30.458 C158.439,30.245 158.612,30.072 158.825,30.072 L170.16,30.072 C170.373,30.072 170.546,30.245 170.546,30.458 L170.546,75.785 C170.546,75.999 170.373,76.172 170.16,76.172 L158.825,76.172 C158.612,76.172 158.439,75.999 158.439,75.785" id="Fill-2" fill="#1F2C30"></path>
            <path d="M191.473,65.462 C195.664,65.462 198.918,64.362 201.144,62.273 C203.335,60.214 204.446,57.11 204.446,53.089 C204.446,49.092 203.332,45.958 201.133,43.836 C198.949,41.728 195.409,40.627 190.716,40.627 L186.025,40.627 L186.025,65.462 L191.473,65.462 Z M174.383,75.779 L174.383,30.464 C174.383,30.247 174.559,30.072 174.776,30.072 L190.969,30.072 C199.088,30.072 205.402,32.098 209.735,36.063 C214.134,40.089 216.364,45.734 216.364,52.826 C216.364,59.933 214.195,65.684 209.916,69.853 C205.636,74.024 199.091,76.172 190.465,76.172 L174.776,76.172 C174.559,76.172 174.383,75.996 174.383,75.779 Z" id="Fill-3" fill="#1F2C30"></path>
            <path d="M285.932,76.018 L273.488,59.312 L270.103,62.959 L270.103,75.79 C270.103,76.001 269.932,76.172 269.721,76.172 L258.688,76.172 C258.477,76.172 258.306,76.001 258.306,75.79 L258.306,30.454 C258.306,30.243 258.477,30.072 258.688,30.072 L269.721,30.072 C269.932,30.072 270.103,30.243 270.103,30.454 L270.183,46.402 L285.307,30.193 C285.379,30.116 285.481,30.072 285.586,30.072 L299.441,30.072 C299.772,30.072 299.945,30.463 299.724,30.709 L281.807,50.585 C281.807,50.585 285.674,55.979 289.713,61.662 C294.314,68.138 297.132,72.132 298.846,74.524 L299.58,75.57 C299.758,75.823 299.577,76.172 299.268,76.172 L286.238,76.172 C286.118,76.172 286.004,76.115 285.932,76.018" id="Fill-4" fill="#1F2C30"></path>
            <g id="Group-8" transform="translate(319.000000, 29.000000)">
                <mask id="mask-2" fill="white">
                    <use xlink:href="#path-1"></use>
                </mask>
                <g id="Clip-6"></g>
                <path d="M25.056,47.911 C18.029,47.911 12.153,45.652 7.589,41.196 C3.018,36.734 0.699,31.032 0.699,24.248 C0.699,17.464 3.06,11.72 7.715,7.173 C12.363,2.634 18.123,0.332 24.835,0.332 C32.327,0.332 38.688,3.224 43.739,8.927 L44.108,9.343 C44.236,9.488 44.237,9.707 44.108,9.853 L37.136,17.759 C36.978,17.938 36.697,17.932 36.547,17.746 L36.08,17.165 C33.187,13.569 29.552,11.746 25.277,11.746 C21.86,11.746 18.9,12.875 16.48,15.102 C14.084,17.306 12.869,20.341 12.869,24.122 C12.869,27.92 14.02,30.997 16.29,33.266 C18.559,35.535 21.349,36.687 24.583,36.687 C29.069,36.687 32.787,34.885 35.638,31.332 L36.083,30.776 C36.228,30.597 36.498,30.584 36.659,30.749 L43.862,38.168 C44.002,38.313 44.007,38.541 43.873,38.691 L43.487,39.128 C38.311,44.956 32.11,47.911 25.056,47.911" id="Fill-5" fill="#1F2C30" mask="url(#mask-2)"></path>
                <path d="M150.379,22.492 C154.047,22.492 157.384,21.372 157.384,16.982 C157.384,12.592 154.001,11.471 150.569,11.471 L143.853,11.471 L143.853,22.492 L150.379,22.492 Z M158.449,47.008 L148.82,33.202 L143.853,33.202 L143.853,46.788 C143.853,47 143.68,47.172 143.468,47.172 L132.129,47.172 C131.917,47.172 131.745,47 131.745,46.788 L131.745,1.456 C131.745,1.244 131.917,1.072 132.129,1.072 L149.941,1.072 C167.222,1.072 169.428,11.575 169.428,16.982 C169.428,27.12 161.599,30.822 161.599,30.822 L172.718,46.566 C172.898,46.82 172.716,47.172 172.404,47.172 L158.764,47.172 C158.639,47.172 158.521,47.11 158.449,47.008 Z" id="Fill-7" fill="#1F2C30" mask="url(#mask-2)"></path>
            </g>
            <path d="M303.708,75.785 L303.708,30.458 C303.708,30.245 303.881,30.072 304.095,30.072 L315.43,30.072 C315.643,30.072 315.816,30.245 315.816,30.458 L315.816,75.785 C315.816,75.999 315.643,76.172 315.43,76.172 L304.095,76.172 C303.881,76.172 303.708,75.999 303.708,75.785" id="Fill-9" fill="#1F2C30"></path>
            <path d="M394.684,76.018 L382.239,59.312 L378.854,62.959 L378.854,75.79 C378.854,76.001 378.683,76.172 378.472,76.172 L367.44,76.172 C367.229,76.172 367.058,76.001 367.058,75.79 L367.058,30.454 C367.058,30.243 367.229,30.072 367.44,30.072 L378.472,30.072 C378.683,30.072 378.854,30.243 378.854,30.454 L378.935,46.402 L394.059,30.193 C394.131,30.116 394.232,30.072 394.338,30.072 L408.192,30.072 C408.523,30.072 408.697,30.463 408.476,30.709 L390.558,50.585 C390.558,50.585 394.425,55.979 398.464,61.662 C403.066,68.138 405.883,72.132 407.598,74.524 L408.332,75.57 C408.509,75.823 408.328,76.172 408.019,76.172 L394.99,76.172 C394.869,76.172 394.756,76.115 394.684,76.018" id="Fill-10" fill="#1F2C30"></path>
            <path d="M412.411,75.785 L412.411,30.458 C412.411,30.245 412.584,30.072 412.798,30.072 L446.522,30.072 C446.736,30.072 446.908,30.245 446.908,30.458 L446.908,40.396 C446.908,40.609 446.736,40.782 446.522,40.782 L424.208,40.782 L424.208,47.922 L443.691,47.922 C443.904,47.922 444.076,48.095 444.076,48.308 L444.076,57.78 C444.076,57.993 443.904,58.166 443.691,58.166 L424.208,58.153 L424.208,65.475 L446.329,65.462 C446.542,65.462 446.715,65.635 446.715,65.848 L446.715,75.785 C446.715,75.999 446.542,76.172 446.329,76.172 L412.798,76.172 C412.584,76.172 412.411,75.999 412.411,75.785" id="Fill-11" fill="#1F2C30"></path>
            <path d="M220.202,75.785 L220.202,30.458 C220.202,30.245 220.375,30.072 220.588,30.072 L254.119,30.072 C254.332,30.072 254.505,30.245 254.505,30.458 L254.505,40.396 C254.505,40.609 254.332,40.782 254.119,40.782 L231.998,40.782 L231.998,47.922 L251.481,47.922 C251.694,47.922 251.866,48.095 251.866,48.308 L251.866,57.78 C251.866,57.993 251.694,58.166 251.481,58.166 L231.998,58.153 L231.998,65.475 L254.119,65.462 C254.332,65.462 254.505,65.635 254.505,65.848 L254.505,75.785 C254.505,75.999 254.332,76.172 254.119,76.172 L220.588,76.172 C220.375,76.172 220.202,75.999 220.202,75.785" id="Fill-12" fill="#1F2C30"></path>
            <path d="M95.773,32.715 C94.834,31.389 72.486,0.251 47.663,0.251 C27.944,0.251 11.901,16.294 11.901,36.013 C11.901,41.054 12.955,45.852 14.845,50.206 C16.988,55.141 20.213,59.497 24.218,62.982 C30.501,68.451 38.698,71.774 47.663,71.774 C54.915,71.774 62.795,68.846 71.176,63.076 C69.909,59.443 67.676,56.171 64.747,53.651 C59.078,57.563 53.097,60.365 47.663,60.365 C42.198,60.365 37.149,58.556 33.081,55.505 C28.822,52.311 25.645,47.753 24.191,42.488 C23.62,40.424 23.31,38.255 23.31,36.013 C23.31,22.585 34.234,11.66 47.663,11.66 C57.205,11.66 67.073,18.929 73.672,25.028 C78.048,29.072 81.607,33.168 83.85,35.93 C82.068,38.025 79.845,40.467 77.328,42.979 C80.073,45.682 82.416,48.799 84.237,52.176 C91.002,45.564 95.447,39.744 95.661,39.463 L98.193,36.13 L95.773,32.715" id="Fill-13" fill="#41C6F1"></path>
            <path d="M75.666,44.842 C75.636,44.813 75.607,44.785 75.579,44.757 L75.579,44.755 C75.059,44.244 74.525,43.747 73.975,43.269 C67.692,37.8 59.494,34.477 50.53,34.477 C43.277,34.477 35.398,37.405 27.017,43.175 C28.283,46.808 30.516,50.08 33.446,52.6 C39.114,48.688 45.095,45.885 50.53,45.885 C55.995,45.885 61.044,47.695 65.112,50.746 C69.371,53.94 72.548,58.498 74.002,63.763 C74.572,65.826 74.883,67.996 74.883,70.238 C74.883,83.667 63.958,94.592 50.53,94.592 C40.988,94.592 31.119,87.321 24.521,81.224 C20.145,77.179 16.586,73.083 14.343,70.32 C16.125,68.226 18.347,65.784 20.864,63.272 C18.119,60.568 15.777,57.452 13.956,54.075 C7.191,60.687 2.745,66.507 2.532,66.788 L-4.26325641e-14,70.121 L2.42,73.536 C3.359,74.861 25.707,106 50.53,106 C70.249,106 86.292,89.957 86.292,70.238 C86.292,65.197 85.238,60.399 83.347,56.045 C81.516,51.826 78.89,48.033 75.666,44.842" id="Fill-14" fill="#41C6F1"></path>
        </g>
    </g>
</svg>